# xmcd
#
# Track frame offsets:
#	150
#	21575
#	40325
#	62218
#	73683
#	84463
#	104090
#	120545
#	132590
#	142788
#	154193
#	165113
#	176038
#	187213
#	197288
#	208125
#	217538
#	235710
#	251658
#	264835
#
# Disc length: 3668 seconds
#
# Revision: 1
# Processed by: cddbd v1.5.1PL0 Copyright (c) Steve Scherf et al.
# Submitted via: CDex 1.50Beta5
#
DISCID=1d0e5214
DTITLE=Various Artist - Nhkみんなのうた [CD1]
DYEAR=2003
DGENRE=Music
TTITLE0=ブレス バイ ブレス/ブレーメンのマペット音楽家（ミュージシャン）
TTITLE1=仁科 竹人/大きな古時計
TTITLE2=舟木一夫/小さな手紙
TTITLE3=Kuko/まっくら森の歌
TTITLE4=千秋/青い童話
TTITLE5=又紀仁美/ひまわり
TTITLE6=綺羅/夏恋歌
TTITLE7=吉岡雄介/クマのぬいぐるみ
TTITLE8=五十嵐寛之、大澤希桂/エプロン・ヒーロー
TTITLE9=山野さと子/しっぽのきもち
TTITLE10=外山善雄とデキシーセインツ/そらとぶくじら
TTITLE11=堀江美都子、こおろぎ'73/南の島のハメハメハ大王
TTITLE12=一城みゆ希、東京放送児童合唱団/へんなＡｂｃ
TTITLE13=山野さと子/おはようクレヨン
TTITLE14=小林亜星/ぶたまんごころ
TTITLE15=やまがたすみこ/くいしんぼうのカレンダー
TTITLE16=祐良＆ハナ With R/幸せきょうりゅう音頭
TTITLE17=酒井司優子/コンピューターおばあちゃん
TTITLE18=aya、東京放送児童合唱団/Just Friends〜いつまでも〜
TTITLE19=秋元祐治/おじいちゃんの子守歌
EXTD=
EXTT0=
EXTT1=
EXTT2=
EXTT3=
EXTT4=
EXTT5=
EXTT6=
EXTT7=
EXTT8=
EXTT9=
EXTT10=
EXTT11=
EXTT12=
EXTT13=
EXTT14=
EXTT15=
EXTT16=
EXTT17=
EXTT18=
EXTT19=
PLAYORDER=
